<?xml version="1.0" standalone="no"?>
<!DOCTYPE svg PUBLIC "-//W3C//DTD SVG 20010904//EN"
 "http://www.w3.org/TR/2001/REC-SVG-20010904/DTD/svg10.dtd">
<svg version="1.0" xmlns="http://www.w3.org/2000/svg"
 width="500.000000pt" height="500.000000pt" viewBox="0 0 500.000000 500.000000"
 preserveAspectRatio="xMidYMid meet">
<metadata>
Created by potrace 1.11, written by Peter Selinger 2001-2013
</metadata>
<g transform="translate(0.000000,500.000000) scale(0.100000,-0.100000)"
fill="#000000" stroke="none">
<path d="M10 4990 c-8 -5 2 -47 45 -190 8 -25 16 -56 18 -70 3 -14 13 -56 22
-95 25 -104 97 -447 110 -528 3 -17 8 -39 10 -47 2 -8 7 -31 10 -50 3 -19 8
-43 11 -52 3 -9 7 -26 9 -38 2 -12 18 -83 35 -157 17 -75 51 -230 75 -347 37
-178 57 -271 100 -473 3 -13 7 -35 10 -50 3 -16 8 -41 12 -58 4 -16 8 -34 9
-40 1 -5 18 -86 39 -180 20 -93 39 -179 41 -190 2 -11 6 -31 9 -45 3 -14 10
-45 15 -70 18 -90 50 -237 75 -350 14 -63 28 -131 31 -150 3 -19 8 -38 10 -41
2 -3 6 -19 8 -36 3 -17 22 -106 42 -199 19 -93 37 -178 40 -189 2 -11 13 -63
24 -115 23 -108 38 -182 46 -225 3 -16 9 -46 14 -65 15 -57 42 -173 46 -200
14 -79 59 -290 81 -380 28 -117 35 -133 98 -226 23 -35 46 -79 49 -97 l6 -33
525 0 524 0 6 28 c4 15 29 62 57 104 50 76 82 161 109 289 7 33 13 62 14 65 8
36 16 71 20 100 3 19 12 63 20 96 8 34 16 73 19 85 6 33 24 77 40 101 14 19
15 19 25 -20 6 -22 31 -138 56 -258 25 -120 48 -226 51 -236 3 -10 7 -30 10
-45 2 -16 31 -82 64 -148 33 -66 60 -127 60 -136 0 -9 6 -19 13 -21 6 -3 248
-4 537 -4 l524 1 8 39 c5 21 23 60 41 85 56 79 73 114 96 201 13 46 25 94 27
107 2 13 6 35 10 51 3 15 7 41 10 57 3 17 15 71 26 120 11 50 21 97 23 105 9
48 19 96 21 105 2 6 6 22 9 38 6 30 74 350 81 382 2 11 7 34 10 50 2 17 9 46
14 65 7 27 85 395 116 545 2 11 6 29 8 40 12 50 67 303 71 325 8 49 76 366 85
400 5 19 12 51 15 70 3 19 22 109 42 200 19 91 37 174 39 185 3 16 25 117 29
135 6 25 92 433 99 470 3 14 7 36 10 50 3 14 8 36 11 50 3 14 7 34 9 45 2 11
9 38 14 60 6 22 13 54 16 70 4 30 36 179 96 455 17 80 34 159 36 175 9 53 25
108 56 195 16 47 31 92 31 100 2 13 -56 15 -443 16 -245 0 -451 -2 -457 -4 -7
-2 -13 -14 -13 -26 0 -24 -24 -63 -55 -88 -63 -50 -122 -119 -163 -191 -42
-73 -138 -385 -157 -507 -2 -14 -10 -59 -19 -100 -8 -41 -17 -86 -20 -100 -2
-14 -12 -61 -21 -105 -9 -44 -18 -91 -21 -105 -3 -14 -14 -59 -24 -100 -10
-41 -21 -92 -24 -114 -4 -21 -8 -42 -11 -46 -3 -5 -8 -23 -10 -42 -8 -47 -33
-170 -51 -243 -3 -11 -7 -33 -10 -50 -3 -16 -9 -46 -14 -65 -8 -29 -37 -162
-55 -255 -3 -11 -11 -49 -19 -85 -9 -36 -27 -121 -41 -190 -14 -69 -31 -147
-37 -174 l-11 -49 -18 34 c-18 36 -43 126 -53 189 -3 19 -28 141 -56 270 -88
406 -100 462 -126 585 -14 66 -38 179 -54 250 -16 72 -31 141 -34 155 -23 124
-141 635 -158 684 -49 145 -127 265 -224 344 -38 31 -56 55 -66 85 l-13 42
-433 0 c-238 1 -435 -2 -437 -5 -1 -3 8 -57 21 -120 13 -63 26 -128 28 -145 4
-23 56 -269 102 -480 3 -11 9 -42 14 -68 6 -27 21 -101 35 -165 39 -175 76
-344 81 -367 21 -90 6 -232 -44 -431 -17 -65 -33 -132 -36 -149 -3 -16 -21
-106 -41 -200 -19 -93 -38 -183 -41 -200 -19 -104 -75 -298 -84 -288 -8 9 -39
128 -64 243 -8 41 -40 194 -71 340 -30 146 -60 283 -65 305 -12 47 -178 823
-185 866 -6 32 -27 124 -55 244 -36 149 -94 294 -151 378 -12 18 -57 67 -100
109 -43 42 -81 88 -85 102 -3 14 -11 27 -18 27 -38 5 -868 4 -876 -1z m315
-233 c3 -12 11 -53 19 -92 8 -38 42 -198 76 -355 34 -157 64 -296 66 -310 3
-14 27 -131 55 -260 27 -129 59 -278 70 -330 11 -52 24 -113 29 -135 6 -22 12
-51 14 -65 2 -14 24 -119 49 -235 25 -115 48 -221 51 -235 6 -35 49 -235 102
-475 2 -11 7 -36 11 -55 4 -19 8 -37 8 -40 1 -3 4 -18 8 -35 3 -16 31 -149 62
-295 31 -146 62 -294 70 -330 8 -36 17 -76 19 -90 3 -14 12 -59 21 -100 22
-98 24 -111 29 -135 3 -11 16 -72 30 -135 14 -63 27 -126 30 -140 3 -14 7 -34
10 -45 2 -11 13 -63 24 -115 11 -52 30 -142 42 -200 12 -58 24 -118 26 -135 3
-16 7 -37 10 -45 3 -8 8 -31 10 -50 3 -19 9 -49 13 -67 10 -37 -2 -44 -57 -32
-85 18 -119 89 -177 374 -2 11 -8 43 -14 70 -5 28 -23 113 -40 190 -80 375
-120 562 -125 588 -2 15 -7 35 -10 45 -3 9 -7 28 -10 42 -2 14 -9 45 -15 70
-5 25 -12 59 -15 75 -3 17 -8 39 -10 50 -3 11 -14 63 -25 115 -11 52 -23 104
-26 115 -5 21 -130 607 -145 685 -5 25 -11 54 -14 65 -2 11 -27 128 -56 260
-28 132 -62 292 -76 356 -13 63 -26 126 -29 139 -3 13 -16 77 -31 143 -14 65
-28 129 -30 141 -5 29 -8 39 -49 231 -20 94 -38 177 -40 185 -4 21 -84 392
-101 465 -7 33 -15 80 -18 105 l-5 45 79 2 c75 2 80 1 85 -20z m252 3 c2 -14
51 -292 59 -333 2 -10 5 -26 8 -35 3 -9 8 -33 11 -52 3 -19 13 -63 21 -97 7
-35 21 -91 28 -125 8 -35 17 -76 20 -93 7 -35 11 -54 25 -115 5 -25 12 -56 15
-70 11 -57 36 -176 40 -195 2 -11 23 -108 45 -215 23 -107 46 -215 52 -240 6
-25 13 -54 15 -65 2 -11 20 -96 40 -190 19 -93 38 -181 40 -195 3 -14 11 -53
19 -86 8 -34 16 -73 19 -85 6 -32 78 -374 111 -529 15 -69 29 -136 31 -150 3
-14 9 -41 14 -60 5 -19 18 -80 30 -136 26 -129 26 -126 45 -214 9 -41 18 -84
21 -95 2 -11 7 -33 10 -50 2 -16 9 -46 14 -65 5 -19 11 -48 13 -65 3 -16 17
-84 32 -150 14 -66 30 -140 35 -165 5 -25 11 -54 14 -65 8 -35 67 -316 92
-435 13 -63 24 -127 24 -141 0 -25 -1 -26 -69 -25 -38 1 -72 3 -74 6 -3 3 -8
23 -11 45 -3 22 -8 51 -11 65 -2 14 -7 36 -9 50 -2 14 -18 90 -35 170 -18 80
-34 158 -37 174 -3 16 -7 32 -9 36 -4 7 -11 38 -21 100 -3 19 -8 38 -10 41 -2
3 -6 21 -9 40 -3 19 -15 75 -26 124 -11 50 -24 110 -29 135 -5 25 -12 56 -15
70 -2 14 -10 50 -16 80 -5 30 -14 69 -19 85 -5 17 -12 46 -15 65 -3 19 -12 63
-20 98 -8 34 -17 77 -20 95 -4 17 -10 50 -15 72 -6 22 -26 117 -46 210 -20 94
-37 177 -39 185 -2 8 -6 26 -9 40 -3 14 -8 36 -10 50 -3 14 -28 133 -56 265
-28 132 -54 249 -56 260 -2 11 -10 49 -18 85 -27 123 -65 305 -70 330 -4 25
-49 230 -66 305 -5 22 -12 56 -15 75 -3 19 -12 62 -20 95 -12 52 -79 362 -91
420 -2 11 -18 85 -35 165 -17 80 -33 156 -35 170 -3 14 -10 43 -16 65 -5 22
-12 51 -14 65 -2 14 -8 45 -14 70 -5 25 -12 68 -15 95 l-6 50 78 0 c61 0 78
-3 80 -15z m237 1 c5 -17 23 -109 32 -157 3 -16 7 -36 9 -44 2 -8 7 -28 9 -45
3 -16 17 -84 31 -150 58 -276 76 -362 81 -390 3 -16 9 -46 14 -65 5 -19 12
-51 15 -70 3 -19 8 -43 11 -52 5 -18 11 -45 20 -93 2 -16 16 -79 29 -140 31
-139 125 -582 131 -615 3 -14 21 -97 40 -185 19 -88 41 -189 49 -225 8 -36 17
-80 20 -99 3 -19 7 -37 9 -40 2 -3 7 -22 10 -41 6 -39 6 -37 34 -165 11 -49
23 -103 26 -120 2 -16 21 -104 41 -195 20 -91 40 -185 45 -210 5 -25 12 -56
15 -70 9 -44 35 -174 39 -195 2 -11 9 -38 14 -60 6 -22 13 -53 15 -70 3 -16 9
-48 15 -70 6 -22 14 -56 17 -75 4 -19 8 -39 9 -45 6 -22 20 -91 21 -105 1 -8
5 -22 8 -30 2 -8 31 -139 62 -290 32 -151 65 -307 75 -347 20 -83 23 -79 -75
-79 l-59 1 -8 35 c-4 19 -33 152 -63 295 -31 143 -64 298 -75 345 -10 47 -21
96 -24 110 -2 14 -14 70 -26 125 -12 55 -24 111 -26 124 -3 13 -21 96 -40 185
-20 88 -38 172 -40 186 -3 14 -7 33 -10 42 -3 10 -8 30 -10 45 -3 15 -12 59
-20 98 -9 38 -17 79 -20 90 -2 11 -18 85 -35 165 -17 80 -41 195 -54 255 -13
61 -30 142 -39 180 -9 39 -31 147 -51 240 -19 94 -40 188 -45 210 -10 40 -65
299 -73 345 -5 26 -34 159 -87 410 -52 243 -164 777 -175 831 -2 9 -13 60 -24
113 -12 52 -21 102 -21 109 0 9 20 13 75 14 61 0 75 -2 79 -16z m3520 8 c3 -3
1 -21 -4 -40 -5 -19 -11 -45 -14 -59 -4 -25 -66 -319 -112 -530 -14 -63 -27
-126 -30 -140 -3 -14 -18 -86 -34 -160 -16 -74 -31 -146 -34 -160 -2 -14 -14
-68 -25 -120 -12 -52 -24 -106 -26 -120 -3 -14 -8 -36 -11 -50 -3 -14 -8 -35
-10 -48 -3 -12 -27 -127 -55 -255 -27 -127 -54 -252 -59 -277 -12 -60 -15 -71
-40 -186 -22 -102 -25 -115 -37 -174 -4 -19 -8 -37 -8 -40 -1 -7 -10 -47 -45
-210 -16 -74 -65 -306 -110 -515 -44 -209 -84 -398 -90 -420 -7 -32 -77 -356
-94 -441 -3 -10 -21 -95 -41 -189 -20 -93 -38 -179 -39 -190 -3 -20 -10 -44
-43 -163 l-17 -64 -64 5 c-35 3 -66 7 -68 10 -3 2 0 26 7 53 6 27 13 60 15 74
3 14 7 32 9 40 2 8 7 29 9 45 3 17 19 95 37 175 17 80 33 156 35 170 3 14 9
41 14 60 5 19 12 53 16 75 3 22 8 43 10 46 2 3 6 21 9 40 3 19 28 138 55 264
27 127 51 242 54 258 3 15 7 35 10 45 3 9 7 28 10 42 2 14 12 59 21 100 9 41
19 89 21 105 3 17 10 48 16 70 5 22 12 49 14 60 8 44 17 85 39 190 13 61 58
272 100 470 41 198 80 378 85 400 7 32 17 78 25 115 0 3 4 21 8 40 12 59 15
72 37 174 26 118 28 128 40 186 5 25 18 86 29 135 11 50 22 101 25 115 6 32
24 118 31 150 3 14 7 37 10 52 3 16 12 56 20 90 8 35 16 74 19 88 2 14 16 78
30 142 14 64 27 127 30 140 17 82 67 315 71 325 4 12 138 14 149 2z m231 -43
c-3 -27 -15 -95 -27 -150 -11 -56 -22 -112 -24 -126 -3 -13 -12 -56 -20 -95
-9 -38 -18 -81 -20 -95 -3 -14 -7 -32 -9 -40 -2 -8 -7 -30 -10 -48 -3 -19 -14
-71 -25 -116 -18 -80 -24 -107 -35 -163 -3 -16 -8 -36 -11 -45 -3 -10 -7 -30
-10 -45 -3 -16 -11 -56 -19 -89 -8 -34 -16 -73 -19 -85 -3 -13 -19 -91 -36
-174 -37 -178 -38 -180 -56 -274 -1 -7 -14 -63 -28 -125 -24 -107 -80 -365
-90 -416 -2 -14 -13 -65 -25 -115 -11 -49 -29 -135 -41 -191 -25 -120 -23
-114 -50 -239 -12 -55 -23 -109 -25 -120 -2 -11 -17 -83 -34 -160 -38 -176
-92 -425 -96 -445 -5 -31 -18 -95 -21 -105 -1 -5 -5 -26 -8 -45 -4 -19 -9 -42
-11 -50 -3 -9 -43 -191 -89 -405 -47 -215 -92 -424 -101 -466 l-18 -77 -61 3
c-33 2 -66 3 -73 4 -6 1 -10 9 -8 18 2 10 20 92 39 183 19 91 46 221 61 290
15 69 28 132 30 141 2 9 13 61 25 115 12 55 23 108 26 119 2 11 8 43 14 71 6
28 13 64 16 80 3 16 9 45 14 64 7 27 49 221 75 350 16 78 118 555 126 590 6
25 13 56 16 70 7 40 111 534 138 655 13 61 26 121 29 135 3 14 7 36 10 50 3
14 9 41 13 60 4 19 8 37 8 40 8 37 18 83 25 115 14 60 69 318 75 357 3 18 11
53 16 78 6 25 13 56 15 70 3 14 29 135 59 270 30 135 57 261 60 280 3 19 12
63 20 98 8 34 17 81 20 103 3 22 8 51 11 63 6 27 12 57 13 71 1 6 34 10 77 11
l76 1 -7 -51z m265 38 c0 -11 -14 -87 -25 -134 -3 -14 -8 -36 -11 -50 -21
-105 -190 -904 -214 -1010 -10 -47 -21 -96 -24 -110 -3 -14 -10 -50 -16 -80
-6 -30 -13 -64 -15 -75 -12 -57 -281 -1316 -315 -1470 -21 -99 -41 -191 -44
-205 -2 -14 -23 -110 -46 -215 -39 -182 -68 -318 -76 -360 -2 -11 -12 -60 -23
-110 -11 -49 -29 -133 -40 -185 -82 -390 -99 -450 -144 -499 -28 -31 -72 -49
-103 -43 -23 4 -24 7 -18 51 5 39 23 133 40 206 3 11 9 40 14 65 5 25 20 98
34 162 14 64 27 127 30 140 3 13 38 181 80 374 41 194 78 367 81 385 3 19 11
52 16 73 6 21 17 69 24 105 20 102 56 274 61 296 3 11 7 31 10 45 3 14 32 151
65 305 33 154 61 289 64 300 2 11 16 76 30 145 14 69 29 136 31 150 3 13 12
56 20 95 9 38 18 81 20 95 3 14 10 45 15 70 6 25 12 52 14 61 2 9 13 59 24
110 11 52 23 110 26 129 3 19 11 53 17 75 5 22 12 51 15 65 2 14 10 53 18 86
8 34 16 74 19 88 3 15 21 102 41 194 100 464 148 678 152 684 7 12 153 5 153
-8z m-766 -84 c3 -36 -6 -95 -30 -195 -2 -11 -9 -40 -14 -65 -5 -25 -25 -121
-45 -215 -21 -93 -39 -179 -41 -190 -3 -11 -9 -38 -13 -60 -5 -22 -16 -74 -24
-115 -9 -41 -32 -149 -52 -240 -40 -184 -104 -482 -111 -520 -2 -14 -15 -74
-29 -135 -13 -60 -31 -146 -40 -190 -10 -44 -18 -87 -20 -95 -13 -56 -35 -160
-39 -180 -2 -14 -19 -90 -36 -170 -17 -80 -46 -217 -65 -305 -19 -88 -46 -214
-60 -280 -14 -66 -28 -131 -30 -145 -2 -14 -19 -95 -39 -180 -27 -124 -72
-335 -91 -430 -2 -8 -4 -15 -5 -15 -1 0 -3 -9 -5 -20 -1 -11 -21 -108 -44
-215 -23 -107 -53 -248 -67 -313 -14 -65 -32 -133 -39 -151 l-14 -33 -78 1
c-43 1 -77 5 -76 9 3 12 12 60 17 87 3 14 7 36 10 49 9 43 48 225 52 247 2 11
22 106 45 210 22 104 43 203 45 219 3 17 12 55 19 85 8 30 16 69 19 85 3 17
28 136 56 265 28 129 52 244 54 255 2 11 16 76 31 145 15 69 28 134 31 145 2
11 17 81 33 155 16 74 32 146 34 160 5 27 13 61 27 125 13 58 50 227 54 250 2
11 27 128 56 260 28 132 54 254 56 270 3 17 10 48 16 70 5 22 12 51 14 65 3
14 23 111 45 215 38 181 48 228 83 390 8 39 31 145 51 236 49 228 97 344 196
469 46 58 57 56 63 -10z m-3056 -8 c77 -114 137 -250 156 -354 2 -13 9 -41 14
-63 6 -22 13 -51 16 -65 2 -14 19 -90 36 -170 17 -80 33 -158 36 -175 2 -16 9
-43 14 -60 5 -16 11 -43 14 -60 2 -16 16 -79 29 -140 14 -60 27 -123 30 -140
4 -25 37 -178 63 -295 7 -29 12 -56 18 -85 2 -11 36 -173 76 -360 40 -187 74
-351 76 -365 3 -14 7 -33 10 -42 3 -10 7 -28 9 -40 3 -13 13 -63 24 -113 11
-49 42 -198 70 -330 28 -132 55 -258 61 -280 5 -22 18 -83 29 -135 11 -52 32
-149 46 -215 15 -66 30 -140 35 -165 5 -25 11 -54 14 -65 4 -17 16 -74 42
-190 2 -11 7 -33 10 -50 3 -16 10 -50 15 -75 6 -25 13 -54 15 -65 2 -11 6 -29
9 -40 9 -41 65 -306 65 -308 0 -5 -159 -2 -163 3 -8 8 -42 142 -66 255 -11 55
-30 143 -41 195 -12 52 -24 109 -27 125 -3 17 -16 80 -30 140 -13 61 -26 121
-29 135 -3 14 -18 86 -34 160 -16 74 -32 151 -35 170 -3 19 -10 49 -15 65 -5
17 -11 44 -13 60 -3 17 -22 104 -42 195 -20 91 -38 176 -40 190 -2 14 -6 34
-9 45 -9 36 -116 539 -122 570 -2 16 -7 38 -10 47 -3 9 -7 25 -9 35 -2 10 -29
137 -60 283 -31 146 -59 276 -61 290 -3 14 -7 33 -10 42 -3 10 -7 30 -10 45
-3 16 -11 56 -19 91 -8 34 -17 74 -20 90 -2 15 -16 81 -30 147 -14 66 -53 248
-86 404 -32 156 -75 351 -93 435 -19 83 -37 176 -41 206 -4 30 -9 58 -11 62
-2 3 1 8 7 10 37 12 51 4 87 -50z"/>
</g>
</svg>
